<svg width="80" height="80" viewBox="0 0 80 80" fill="none" xmlns="http://www.w3.org/2000/svg">
<g clip-path="url(#clip0_156_2609)">
<rect width="80" height="80" rx="10" fill="#564ED1"/>
<path d="M39.8449 105.863C35.3992 105.863 30.9711 105.863 26.5254 105.863C26.5254 93.2285 26.5254 49.0176 26.5254 36.3834C26.5254 36.2253 26.543 36.0847 26.543 35.9265C27.1228 36.155 27.5094 36.5943 27.8257 37.1039C28.4056 38.1055 28.5989 39.1949 28.6164 40.3195C28.6516 42.0943 28.634 43.869 28.6164 45.6614C28.6164 46.1885 28.7746 46.5751 29.126 46.9617C30.2506 48.1566 31.3577 49.3866 32.4471 50.6167C32.781 50.9857 33.1676 51.1438 33.6596 51.1438C35.4343 51.1262 37.2091 51.1262 39.0014 51.1438C39.5462 51.1438 39.9679 50.9857 40.4072 50.6869C43.2363 48.7189 46.0653 46.7508 48.912 44.8179C49.4743 44.4313 49.7203 43.992 49.7203 43.2892C49.7379 41.1981 49.5797 39.1246 49.8257 37.0336C50.0893 34.8371 51.2842 33.5368 53.2698 33.3435C53.7091 33.3083 53.9375 33.3611 53.9375 33.9058C53.92 38.1933 53.92 42.4633 53.9375 46.7508C53.9375 47.0847 53.8497 47.3307 53.5861 47.5416C51.5302 49.2988 49.4918 51.0559 47.4535 52.8131C46.6101 53.5512 45.749 54.2716 44.9232 55.0272C44.3609 55.5368 44.2906 56.0991 44.6947 56.5911C45.0813 57.048 45.7139 57.0655 46.2762 56.6262C46.4695 56.4857 46.6452 56.3275 46.8385 56.1694C49.6149 53.7796 52.3561 51.3547 55.15 48.9825C55.7826 48.4553 56.1692 47.9106 56.0286 47.0847C55.888 46.2764 56.2219 45.7492 56.9072 45.3099C58.5941 44.1678 60.0701 42.7444 61.8976 41.778C63.7075 40.8291 65.4998 41.1103 66.6069 42.4633C66.9407 42.8674 66.8529 43.0607 66.4839 43.3419C62.372 46.4521 58.2778 49.5799 54.166 52.6901C52.7778 53.7444 51.4072 54.7812 50.0366 55.8355C49.5094 56.2397 49.404 56.9425 49.773 57.3994C50.1244 57.8387 50.7746 57.8914 51.3018 57.5224C51.4775 57.3994 51.6532 57.2588 51.8289 57.1358C56.2395 53.7796 60.6676 50.4234 65.0781 47.0671C65.412 46.8211 65.7283 46.7157 66.1676 46.786C67.2922 46.9617 67.9775 47.6997 68.5398 48.5959C68.7506 48.9297 68.6979 49.123 68.3289 49.2988C67.4152 49.7381 66.5366 50.2301 65.6404 50.6869C62.126 52.532 58.6117 54.377 55.0973 56.2221C54.4471 56.5735 54.2538 57.1182 54.5701 57.6981C54.8513 58.2428 55.396 58.3834 56.0462 58.0847C56.4855 57.8738 56.9072 57.663 57.3465 57.4697C58.3481 57.4697 59.3321 57.4697 60.3337 57.4697C60.527 58.2956 60.7906 58.5064 61.6516 58.5416C62.8113 58.5767 63.9711 58.6646 65.043 59.2093C65.7458 59.5607 66.2379 60.0879 66.4312 60.8611C66.6069 61.5991 66.519 61.7045 65.781 61.7045C60.5973 61.7045 55.4136 61.7045 50.2299 61.7045C49.6851 61.7045 49.2634 61.8451 48.8593 62.1965C45.7842 64.7796 42.7091 67.3627 39.634 69.9457C39.3353 70.2093 39.1772 70.5256 39.1947 70.9298C39.2123 71.6326 39.2299 103.912 39.1947 104.615C39.1244 105.142 39.3353 105.564 39.8449 105.863Z" fill="#65C6E9"/>
<path d="M57.3113 57.4345C56.872 57.6454 56.4503 57.8563 56.011 58.0496C55.3608 58.3483 54.8337 58.2077 54.5349 57.663C54.2362 57.0831 54.4119 56.5384 55.0621 56.1869C58.5765 54.3419 62.0908 52.4968 65.6052 50.6518C66.5014 50.1774 67.38 49.7029 68.2937 49.2636C68.6627 49.0879 68.7154 48.8946 68.5046 48.5607C67.9423 47.6646 67.257 46.9266 66.1324 46.7508C65.6931 46.6805 65.3768 46.786 65.0429 47.032C60.6324 50.3882 56.2043 53.7444 51.7937 57.1007C51.618 57.2413 51.4423 57.3643 51.2666 57.4873C50.7218 57.8563 50.0892 57.8036 49.7378 57.3643C49.3688 56.9074 49.4742 56.2221 50.0014 55.8004C51.372 54.746 52.7602 53.6917 54.1308 52.655C58.2426 49.5272 62.3368 46.417 66.4487 43.3067C66.8353 43.0256 66.9055 42.8323 66.5717 42.4281C65.4646 41.0751 63.6723 40.7764 61.8624 41.7428C60.0525 42.7093 58.5589 44.1326 56.872 45.2748C56.2043 45.7317 55.8528 46.2412 55.9934 47.0496C56.134 47.8754 55.7474 48.4202 55.1148 48.9473C52.3209 51.3195 49.5621 53.7269 46.8033 56.1342C46.6276 56.2924 46.4343 56.4505 46.241 56.5911C45.6787 57.0304 45.0461 57.0304 44.6595 56.5559C44.2554 56.0815 44.3257 55.5016 44.888 54.992C45.7138 54.2365 46.5749 53.516 47.4183 52.778C49.4567 51.0208 51.5126 49.2636 53.5509 47.5064C53.8145 47.278 53.9023 47.0496 53.9023 46.7157C53.8848 42.4281 53.8848 38.1582 53.9023 33.8706C53.9023 33.3259 53.6739 33.2556 53.2346 33.3083C51.2666 33.4841 50.0541 34.7844 49.7905 36.9984C49.5445 39.0719 49.7027 41.163 49.6851 43.254C49.6851 43.9569 49.4215 44.3962 48.8768 44.7828C46.0301 46.7333 43.2011 48.6837 40.372 50.6518C39.9503 50.9505 39.511 51.1087 38.9662 51.1087C37.1915 51.0735 35.4167 51.0911 33.6244 51.1087C33.1324 51.1087 32.7458 50.9505 32.4119 50.5815C31.3225 49.3515 30.2154 48.139 29.0908 46.9266C28.7394 46.54 28.5812 46.1534 28.5812 45.6262C28.5988 43.8515 28.6164 42.0767 28.5812 40.2844C28.5637 39.1598 28.3704 38.0527 27.7905 37.0687C27.4918 36.5416 27.0876 36.1198 26.5078 35.8914C26.1563 35.6454 25.7522 35.5751 25.3304 35.5048C24.364 35.3467 24.364 35.3467 24.364 36.278C24.364 48.4553 24.364 60.6326 24.364 72.8099C24.364 73.425 24.241 105.511 23.6611 105.828C22.6244 105.88 22.2378 105.529 22.2378 104.51C22.2378 91.77 22.2378 47.4713 22.2378 34.7492C22.2378 33.7828 22.5189 33.4665 23.503 33.3786C23.8544 33.3435 24.3288 33.4489 24.5221 33.2556C24.733 33.0448 24.3991 32.623 24.3816 32.2892C24.364 32.008 24.3464 31.7269 24.3464 31.4281C24.3464 27.9665 24.3464 24.4872 24.3464 21.0256C24.3464 19.2157 25.102 17.8802 26.6659 16.984C29.6883 15.2444 32.7106 13.5048 35.7154 11.7476C37.2618 10.8515 38.7729 10.8339 40.3193 11.7301C43.3592 13.4872 46.3816 15.2444 49.4215 17.0016C50.9854 17.8978 51.741 19.2508 51.741 21.0607C51.7234 24.2588 51.741 27.4745 51.741 30.6726C51.741 30.9186 51.741 31.147 51.741 31.4457C52.7074 31.27 53.6212 31.2173 54.5525 31.2524C55.6068 31.2876 55.9407 31.6214 55.9407 32.6933C55.9407 35.9617 55.9407 39.2301 55.9407 42.4984C55.9407 42.7093 55.9407 42.9202 55.9407 43.2716C56.7666 42.6566 57.487 42.1119 58.2075 41.5671C59.2793 40.7588 60.3688 39.9857 61.634 39.4936C64.217 38.5096 66.4135 39.0719 68.1883 41.1805C68.5397 41.6023 68.856 42.0416 69.1723 42.4984C69.5589 43.0432 69.4535 43.623 68.9439 44.0623C68.7506 44.2381 68.5222 44.3786 68.3113 44.5368C68.118 44.6773 67.9423 44.8355 67.6963 45.0288C69.2602 45.8371 70.1563 47.155 70.8241 48.6662C71.2634 49.6678 71.1404 50.0719 70.1739 50.5815C66.0094 52.778 61.8273 54.9569 57.6627 57.1534C57.61 57.2413 57.4694 57.3467 57.3113 57.4345ZM49.7027 26.2444C49.7027 24.4872 49.6851 22.7301 49.7027 20.9729C49.7027 20.024 49.3336 19.3387 48.5078 18.8642C45.4503 17.1071 42.3928 15.3323 39.3352 13.5575C38.4918 13.0655 37.7011 13.0831 36.8576 13.5751C33.8704 15.3147 30.8656 17.0543 27.8608 18.7764C26.9471 19.3035 26.5078 20.0064 26.5078 21.0783C26.5253 24.54 26.5253 28.0192 26.5078 31.4809C26.5078 32.5176 26.9295 33.2205 27.8081 33.7301C30.8304 35.4521 33.8528 37.2093 36.8752 38.9489C37.7011 39.4234 38.4918 39.4409 39.3001 38.9841C42.3576 37.2269 45.4151 35.4521 48.4726 33.6773C49.3161 33.2029 49.7202 32.5 49.7027 31.516C49.6851 29.7588 49.7027 28.0016 49.7027 26.2444ZM30.3736 37.5959C30.4614 38.1757 30.5493 38.5975 30.602 39.0368C30.848 41.0224 30.6899 43.0256 30.725 45.0112C30.725 45.3978 30.8304 45.6614 31.094 45.9425C31.9375 46.8387 32.7634 47.7524 33.5717 48.6662C33.7825 48.8946 33.9758 49 34.2921 49C35.7681 48.9825 37.2266 48.9825 38.7027 49C39.0189 49 39.2474 48.877 39.4758 48.7189C41.5317 47.2956 43.5876 45.8898 45.6611 44.4665C46.2937 44.0272 47.1723 43.7109 47.471 43.1135C47.7873 42.4809 47.5765 41.5847 47.594 40.794C47.6116 39.4058 47.5413 38.0176 47.7522 36.524C47.4535 36.6821 47.2602 36.77 47.0844 36.8754C44.9231 38.123 42.7442 39.3706 40.6004 40.6358C38.9487 41.6023 37.3496 41.6198 35.6979 40.6358C33.9758 39.6342 32.2362 38.6678 30.3736 37.5959Z" fill="black"/>
<path d="M39.8448 105.863C39.3352 105.582 39.1244 105.142 39.1595 104.562C39.1947 103.86 39.1771 71.5799 39.1595 70.8771C39.1595 70.4729 39.3001 70.1566 39.5988 69.893C42.6739 67.31 45.7665 64.7445 48.824 62.1438C49.2282 61.7924 49.6675 61.6518 50.1947 61.6518C55.3784 61.6694 60.5621 61.6694 65.7458 61.6518C66.5014 61.6518 66.5892 61.5464 66.3959 60.8084C66.2026 60.0352 65.7106 59.4905 65.0078 59.1566C63.9359 58.6295 62.7761 58.524 61.6164 58.4889C60.7729 58.4713 60.4918 58.2429 60.2985 57.417C60.4742 56.6087 60.7729 56.3627 61.5461 56.3803C62.8991 56.3978 64.217 56.5384 65.4822 57.048C67.4854 57.8739 68.5397 59.3851 68.5749 61.5815C68.5749 61.8451 68.5748 62.1087 68.5573 62.3723C68.5221 63.4617 68.2058 63.7605 67.1164 63.7605C61.6515 63.7605 56.1867 63.7605 50.7394 63.7605C50.3352 63.7605 50.0365 63.8659 49.7378 64.1295C47.0669 66.3962 44.3784 68.663 41.6899 70.8946C41.3911 71.1407 41.2506 71.3867 41.2857 71.7732C41.3208 72.1598 41.3033 104.141 41.2857 104.527C41.2681 105.564 40.8816 105.915 39.8448 105.863Z" fill="black"/>
<path d="M23.7139 105.863C24.2937 105.546 24.4167 73.4777 24.4167 72.8451C24.3992 60.6678 24.4167 48.4904 24.4167 36.3131C24.4167 35.3818 24.4167 35.3818 25.3832 35.54C25.8049 35.6102 26.2091 35.6805 26.5605 35.9265C26.5605 36.0847 26.5429 36.2253 26.5429 36.3834C26.5429 49.0176 26.5429 93.2285 26.5429 105.863C25.5941 105.863 24.6452 105.863 23.7139 105.863Z" fill="#7FD7FE"/>
<path d="M23.1514 16.2285C22.8351 16.246 22.6067 16.1055 22.3958 15.8946C21.7984 15.262 21.1834 14.6294 20.5859 13.9793C20.0939 13.4345 20.0939 12.8371 20.5508 12.3978C20.9901 11.9761 21.6227 12.0112 22.1147 12.5384C22.7297 13.171 23.3271 13.8211 23.907 14.4537C24.2233 14.7876 24.276 15.2093 24.0827 15.6134C23.9246 16.0176 23.5907 16.2109 23.1514 16.2285Z" fill="black"/>
<path d="M18.6005 18.0911C19.567 18.4601 20.6916 18.7413 21.6756 19.3211C22.1149 19.5847 22.1676 20.0943 21.9568 20.5512C21.7459 21.0256 21.3242 21.2892 20.8322 21.1311C19.8306 20.8148 18.8465 20.4458 17.8976 20.024C17.4232 19.8132 17.3178 19.3387 17.4408 18.8291C17.5638 18.4074 18.0558 18.0735 18.6005 18.0911Z" fill="black"/>
<path d="M56.169 13.2413C56.1866 13.4697 56.0636 13.6982 55.8878 13.8915C55.2728 14.5592 54.6754 15.2269 54.0428 15.8595C53.5508 16.3515 52.9358 16.3515 52.514 15.9122C52.0923 15.4729 52.0747 14.8931 52.5316 14.3835C53.1115 13.7333 53.7265 13.1007 54.324 12.4681C54.6578 12.1167 55.062 12.0113 55.5188 12.2046C55.9581 12.3803 56.169 12.7141 56.169 13.2413Z" fill="black"/>
<path d="M58.9457 19.1278C58.9632 19.6023 58.7348 19.9361 58.3131 20.1118C57.4696 20.4633 56.6086 20.7796 55.73 21.0783C55.1326 21.2892 54.6054 21.0256 54.377 20.4808C54.1661 19.9537 54.3945 19.3738 54.9744 19.1454C55.8179 18.7939 56.6789 18.4601 57.5575 18.1789C58.2955 17.9329 58.9281 18.4074 58.9457 19.1278Z" fill="black"/>
<path d="M49.7027 26.2444C49.7027 28.0016 49.6852 29.7588 49.7027 31.516C49.7203 32.5 49.2986 33.2029 48.4727 33.6773C45.4152 35.4521 42.3577 37.2092 39.3002 38.984C38.4919 39.4584 37.6836 39.4409 36.8752 38.9489C33.8529 37.1917 30.8481 35.4521 27.8082 33.73C26.9296 33.2204 26.4903 32.5176 26.5078 31.4808C26.5254 28.0191 26.5254 24.5399 26.5078 21.0783C26.5078 20.0239 26.9471 19.3035 27.8609 18.7763C30.8657 17.0543 33.8705 15.3322 36.8577 13.5751C37.7011 13.083 38.5094 13.0655 39.3353 13.5575C42.3928 15.3322 45.4503 17.0894 48.5078 18.8642C49.3337 19.3386 49.7027 20.0415 49.7027 20.9728C49.6852 22.73 49.7027 24.4872 49.7027 26.2444ZM29.7762 26.2268C29.7762 27.5271 29.8113 28.8099 29.7586 30.1102C29.7411 30.8482 30.0046 31.2875 30.6372 31.639C32.904 32.9217 35.1708 34.222 37.42 35.5575C37.9647 35.8738 38.4216 35.8562 38.9487 35.5575C41.2506 34.2045 43.5701 32.869 45.9072 31.5511C46.3992 31.2699 46.6276 30.8834 46.6276 30.3211C46.6276 27.615 46.6276 24.9265 46.6276 22.2204C46.6276 21.6933 46.4168 21.2891 45.9599 21.0255C43.5877 19.6549 41.2155 18.2843 38.8433 16.9137C38.404 16.6677 37.9823 16.6677 37.543 16.9137C35.1883 18.2668 32.8337 19.6374 30.4791 20.9904C29.9871 21.2715 29.7762 21.6581 29.7762 22.2204C29.7938 23.5383 29.7762 24.8914 29.7762 26.2268Z" fill="#FFD987"/>
<path d="M29.7764 26.2268C29.7764 24.8914 29.7939 23.5559 29.7764 22.2029C29.7588 21.6406 29.9872 21.254 30.4792 20.9728C32.8339 19.6198 35.1885 18.2668 37.5431 16.8962C37.9824 16.6326 38.4217 16.6502 38.8434 16.8962C41.2157 18.2668 43.5879 19.6374 45.9601 21.008C46.4169 21.2716 46.6278 21.6757 46.6278 22.2029C46.6278 24.909 46.6278 27.5975 46.6278 30.3035C46.6278 30.8658 46.3818 31.2524 45.9073 31.5336C43.5879 32.869 41.2684 34.2045 38.9489 35.5399C38.4217 35.8562 37.9649 35.8738 37.4201 35.5399C35.1709 34.2221 32.9217 32.9042 30.6374 31.6214C30.0048 31.27 29.7236 30.8307 29.7588 30.0927C29.8115 28.8099 29.7764 27.5272 29.7764 26.2268ZM44.5367 26.2796C44.5367 25.278 44.5192 24.2588 44.5543 23.2572C44.5719 22.7828 44.4313 22.5016 44.0096 22.2732C42.2173 21.2716 40.4249 20.2348 38.6502 19.1981C38.3163 19.0048 38.0879 19.0224 37.754 19.2157C35.9441 20.2875 34.1166 21.3243 32.2891 22.361C31.9728 22.5367 31.885 22.7476 31.885 23.099C31.9026 25.2077 31.9026 27.3163 31.885 29.4074C31.885 29.7939 32.008 30.0048 32.3243 30.1805C34.1518 31.2173 35.9792 32.2716 37.7891 33.3259C38.1054 33.5016 38.3339 33.484 38.6326 33.3083C40.4601 32.2364 42.3051 31.1821 44.1502 30.1278C44.4313 29.9697 44.5367 29.7764 44.5367 29.4425C44.5192 28.3882 44.5367 27.3339 44.5367 26.2796Z" fill="black"/>
<path d="M44.5367 26.2795C44.5367 27.3339 44.5191 28.3882 44.5367 29.4425C44.5367 29.7763 44.4313 29.9521 44.1501 30.1278C42.3051 31.1821 40.46 32.2364 38.6325 33.3083C38.3338 33.484 38.1054 33.5016 37.7891 33.3259C35.9792 32.254 34.1517 31.2172 32.3242 30.1805C31.9904 29.9872 31.8674 29.7763 31.8849 29.4073C31.9025 27.2987 31.9025 25.1901 31.8849 23.099C31.8849 22.7476 31.9728 22.5543 32.2891 22.361C34.1166 21.3243 35.944 20.2875 37.7539 19.2156C38.0878 19.0223 38.3162 19.0048 38.6501 19.1981C40.4249 20.2524 42.1996 21.2715 44.0095 22.2731C44.4313 22.5192 44.5718 22.7827 44.5543 23.2572C44.5015 24.2588 44.5367 25.2779 44.5367 26.2795Z" fill="#CFB06E"/>
</g>
<defs>
<clipPath id="clip0_156_2609">
<rect width="80" height="80" rx="10" fill="white"/>
</clipPath>
</defs>
</svg>
