<svg width="512" height="512" viewBox="0 0 512 512" fill="none" xmlns="http://www.w3.org/2000/svg">
<g clip-path="url(#clip0_60_1769)">
<rect width="512" height="512" fill="#564ED1"/>
<path d="M255.006 677.522C226.554 677.522 198.214 677.522 169.761 677.522C169.761 596.663 169.761 313.713 169.761 232.854C169.761 231.842 169.874 230.943 169.874 229.93C173.585 231.392 176.059 234.204 178.084 237.465C181.795 243.875 183.032 250.848 183.144 258.045C183.369 269.404 183.257 280.762 183.144 292.233C183.144 295.607 184.156 298.081 186.406 300.555C193.603 308.203 200.688 316.075 207.661 323.947C209.797 326.309 212.271 327.321 215.42 327.321C226.779 327.208 238.137 327.208 249.608 327.321C253.094 327.321 255.793 326.309 258.605 324.397C276.711 311.801 294.817 299.206 313.036 286.835C316.634 284.361 318.209 281.55 318.209 277.051C318.321 263.668 317.309 250.398 318.884 237.015C320.57 222.958 328.218 214.636 340.926 213.399C343.737 213.174 345.199 213.511 345.199 216.997C345.087 244.438 345.087 271.766 345.199 299.206C345.199 301.343 344.637 302.917 342.95 304.267C329.792 315.513 316.747 326.759 303.701 338.005C298.303 342.728 292.793 347.339 287.507 352.175C283.908 355.436 283.459 359.035 286.045 362.183C288.519 365.107 292.568 365.22 296.167 362.408C297.404 361.509 298.528 360.497 299.765 359.484C317.534 344.19 335.078 328.67 352.959 313.488C357.008 310.114 359.482 306.628 358.582 301.343C357.682 296.169 359.819 292.796 364.205 289.984C375.001 282.674 384.448 273.565 396.144 267.38C407.727 261.307 419.198 263.106 426.283 271.766C428.42 274.352 427.857 275.589 425.496 277.389C399.18 297.294 372.977 317.312 346.661 337.217C337.777 343.965 329.005 350.6 320.233 357.348C316.859 359.934 316.184 364.433 318.546 367.357C320.795 370.168 324.956 370.506 328.33 368.144C329.455 367.357 330.579 366.457 331.704 365.67C359.931 344.19 388.271 322.71 416.499 301.23C418.636 299.656 420.66 298.981 423.471 299.431C430.669 300.555 435.055 305.279 438.654 311.014C440.003 313.151 439.666 314.388 437.304 315.513C431.456 318.324 425.833 321.473 420.098 324.397C397.606 336.205 375.114 348.014 352.622 359.822C348.461 362.071 347.224 365.557 349.248 369.268C351.047 372.755 354.533 373.654 358.694 371.743C361.506 370.393 364.205 369.044 367.016 367.806C373.427 367.806 379.724 367.806 386.135 367.806C387.372 373.092 389.059 374.442 394.569 374.667C401.992 374.891 409.414 375.454 416.274 378.94C420.772 381.189 423.921 384.563 425.158 389.511C426.283 394.235 425.721 394.909 420.997 394.909C387.822 394.909 354.646 394.909 321.47 394.909C317.984 394.909 315.285 395.809 312.698 398.058C293.018 414.59 273.337 431.122 253.657 447.653C251.745 449.34 250.733 451.364 250.845 453.951C250.958 458.449 251.07 665.039 250.845 669.537C250.395 672.911 251.745 675.61 255.006 677.522Z" fill="#65C6E9"/>
<path d="M366.792 367.581C363.98 368.931 361.281 370.28 358.47 371.517C354.309 373.429 350.935 372.529 349.023 369.043C347.111 365.332 348.236 361.846 352.397 359.597C374.889 347.788 397.381 335.98 419.873 324.172C425.608 321.135 431.231 318.099 437.079 315.287C439.441 314.163 439.778 312.926 438.429 310.789C434.83 305.053 430.444 300.33 423.247 299.205C420.435 298.756 418.411 299.43 416.274 301.005C388.047 322.485 359.707 343.965 331.479 365.444C330.355 366.344 329.23 367.131 328.105 367.919C324.619 370.28 320.571 369.943 318.321 367.131C315.96 364.207 316.634 359.821 320.008 357.122C328.78 350.375 337.664 343.627 346.436 336.992C372.752 316.974 398.955 297.069 425.271 277.163C427.745 275.364 428.195 274.127 426.058 271.54C418.973 262.881 407.502 260.969 395.919 267.154C384.335 273.34 374.776 282.449 363.98 289.759C359.707 292.683 357.457 295.944 358.357 301.117C359.257 306.403 356.783 309.889 352.734 313.263C334.853 328.445 317.197 343.852 299.541 359.259C298.416 360.271 297.179 361.283 295.942 362.183C292.343 364.995 288.295 364.995 285.82 361.958C283.234 358.922 283.684 355.211 287.282 351.949C292.568 347.113 298.079 342.503 303.477 337.779C316.522 326.533 329.68 315.287 342.725 304.041C344.412 302.579 344.974 301.117 344.974 298.981C344.862 271.54 344.862 244.212 344.974 216.772C344.974 213.286 343.512 212.836 340.701 213.173C328.105 214.298 320.346 222.62 318.659 236.79C317.084 250.06 318.096 263.443 317.984 276.826C317.984 281.324 316.297 284.136 312.811 286.61C294.592 299.093 276.486 311.576 258.38 324.172C255.681 326.083 252.87 327.096 249.383 327.096C238.025 326.871 226.666 326.983 215.195 327.096C212.047 327.096 209.572 326.083 207.436 323.722C200.463 315.85 193.378 308.09 186.181 300.33C183.932 297.856 182.919 295.382 182.919 292.008C183.032 280.65 183.144 269.291 182.919 257.82C182.807 250.623 181.57 243.538 177.859 237.24C175.947 233.866 173.36 231.167 169.649 229.705C167.4 228.131 164.813 227.681 162.114 227.231C155.929 226.219 155.929 226.219 155.929 232.179C155.929 310.114 155.929 388.049 155.929 465.984C155.929 469.92 155.142 675.272 151.431 677.296C144.795 677.634 142.321 675.384 142.321 668.862C142.321 587.328 142.321 303.816 142.321 222.395C142.321 216.21 144.121 214.186 150.418 213.623C152.668 213.398 155.704 214.073 156.941 212.836C158.291 211.487 156.154 208.788 156.041 206.651C155.929 204.851 155.817 203.052 155.817 201.14C155.817 178.986 155.817 156.718 155.817 134.564C155.817 122.98 160.652 114.433 170.661 108.698C190.004 97.5645 209.348 86.4309 228.578 75.1849C238.475 69.4494 248.146 69.337 258.043 75.0724C277.498 86.3185 296.841 97.5645 316.297 108.81C326.306 114.546 331.142 123.205 331.142 134.789C331.029 155.256 331.142 175.837 331.142 196.304C331.142 197.879 331.142 199.341 331.142 201.253C337.327 200.128 343.175 199.791 349.135 200.016C355.883 200.241 358.02 202.377 358.02 209.237C358.02 230.155 358.02 251.072 358.02 271.99C358.02 273.34 358.02 274.689 358.02 276.938C363.305 273.002 367.916 269.516 372.527 266.03C379.387 260.857 386.36 255.908 394.457 252.759C410.988 246.462 425.046 250.06 436.404 263.556C438.654 266.255 440.678 269.066 442.702 271.99C445.176 275.476 444.502 279.188 441.24 281.999C440.003 283.124 438.541 284.023 437.192 285.035C435.955 285.935 434.83 286.947 433.256 288.184C443.265 293.357 449 301.792 453.273 311.464C456.085 317.874 455.298 320.46 449.112 323.722C422.459 337.779 395.694 351.724 369.041 365.782C368.703 366.344 367.804 367.019 366.792 367.581ZM318.096 167.964C318.096 156.718 317.984 145.472 318.096 134.226C318.096 128.154 315.735 123.768 310.449 120.731C290.881 109.485 271.313 98.1268 251.745 86.7683C246.347 83.6194 241.286 83.7319 235.888 86.8808C216.77 98.0143 197.539 109.148 178.309 120.169C172.461 123.543 169.649 128.041 169.649 134.901C169.762 157.056 169.762 179.323 169.649 201.478C169.649 208.113 172.348 212.611 177.971 215.872C197.314 226.894 216.657 238.14 236.001 249.273C241.286 252.31 246.347 252.422 251.52 249.498C271.088 238.252 290.656 226.894 310.224 215.535C315.622 212.499 318.209 208 318.096 201.703C317.984 190.457 318.096 179.211 318.096 167.964ZM194.39 240.614C194.953 244.325 195.515 247.024 195.852 249.835C197.427 262.543 196.415 275.364 196.64 288.072C196.64 290.546 197.314 292.233 199.001 294.032C204.399 299.768 209.685 305.616 214.858 311.464C216.208 312.926 217.445 313.6 219.469 313.6C228.916 313.488 238.25 313.488 247.696 313.6C249.721 313.6 251.183 312.813 252.645 311.801C265.802 302.692 278.96 293.695 292.231 284.586C296.279 281.774 301.902 279.75 303.814 275.926C305.838 271.878 304.489 266.142 304.601 261.081C304.714 252.197 304.264 243.313 305.613 233.754C303.702 234.766 302.464 235.328 301.34 236.003C287.507 243.988 273.562 251.972 259.842 260.069C249.271 266.255 239.037 266.367 228.466 260.069C217.445 253.659 206.311 247.474 194.39 240.614Z" fill="black"/>
<path d="M255.006 677.521C251.745 675.722 250.395 672.91 250.62 669.199C250.845 664.701 250.733 458.112 250.62 453.613C250.62 451.027 251.52 449.002 253.432 447.316C273.112 430.784 292.905 414.365 312.473 397.721C315.06 395.471 317.871 394.572 321.245 394.572C354.421 394.684 387.597 394.684 420.772 394.572C425.608 394.572 426.17 393.897 424.933 389.174C423.696 384.225 420.547 380.739 416.049 378.602C409.189 375.229 401.767 374.554 394.344 374.329C388.946 374.216 387.147 372.754 385.91 367.469C387.034 362.296 388.946 360.721 393.894 360.834C402.554 360.946 410.988 361.846 419.085 365.107C431.906 370.393 438.653 380.064 438.878 394.122C438.878 395.809 438.878 397.496 438.766 399.183C438.541 406.155 436.517 408.067 429.544 408.067C394.569 408.067 359.594 408.067 324.731 408.067C322.145 408.067 320.233 408.742 318.321 410.429C301.227 424.936 284.021 439.443 266.814 453.726C264.903 455.3 264.003 456.875 264.228 459.349C264.453 461.823 264.34 666.5 264.228 668.974C264.115 675.61 261.641 677.859 255.006 677.521Z" fill="black"/>
<path d="M151.768 677.521C155.479 675.497 156.266 470.257 156.266 466.209C156.154 388.274 156.266 310.339 156.266 232.404C156.266 226.444 156.266 226.444 162.452 227.456C165.151 227.906 167.737 228.355 169.986 229.93C169.986 230.942 169.874 231.842 169.874 232.854C169.874 313.713 169.874 596.662 169.874 677.521C163.801 677.521 157.728 677.521 151.768 677.521Z" fill="#7FD7FE"/>
<path d="M148.169 103.862C146.145 103.975 144.683 103.075 143.333 101.726C139.51 97.677 135.574 93.6285 131.75 89.4675C128.601 85.9812 128.601 82.1575 131.525 79.346C134.337 76.647 138.385 76.8719 141.534 80.2457C145.47 84.2943 149.294 88.4553 153.005 92.5039C155.029 94.6406 155.367 97.3397 154.129 99.9262C153.117 102.513 150.981 103.75 148.169 103.862Z" fill="black"/>
<path d="M119.042 115.783C125.227 118.145 132.425 119.944 138.723 123.655C141.534 125.342 141.871 128.604 140.522 131.527C139.172 134.564 136.473 136.251 133.324 135.239C126.914 133.214 120.616 130.853 114.544 128.154C111.507 126.804 110.832 123.768 111.62 120.506C112.407 117.807 115.556 115.671 119.042 115.783Z" fill="black"/>
<path d="M359.482 84.7445C359.594 86.2065 358.807 87.6685 357.682 88.9055C353.746 93.179 349.923 97.4525 345.874 101.501C342.725 104.65 338.789 104.65 336.09 101.838C333.391 99.0269 333.278 95.3157 336.202 92.0544C339.914 87.8934 343.85 83.8448 347.673 79.7963C349.81 77.5471 352.397 76.8723 355.321 78.1094C358.132 79.234 359.482 81.3707 359.482 84.7445Z" fill="black"/>
<path d="M377.25 122.418C377.363 125.454 375.901 127.591 373.202 128.716C367.804 130.965 362.293 132.989 356.67 134.901C352.847 136.25 349.473 134.564 348.011 131.077C346.661 127.704 348.123 123.992 351.834 122.53C357.232 120.281 362.743 118.144 368.366 116.345C373.089 114.771 377.138 117.807 377.25 122.418Z" fill="black"/>
<path d="M318.096 167.964C318.096 179.21 317.984 190.456 318.096 201.702C318.209 208 315.51 212.498 310.224 215.535C290.656 226.893 271.088 238.139 251.52 249.498C246.347 252.534 241.174 252.422 236 249.273C216.657 238.027 197.427 226.893 177.971 215.872C172.348 212.611 169.537 208.113 169.649 201.477C169.761 179.323 169.761 157.056 169.649 134.901C169.649 128.153 172.461 123.543 178.308 120.169C197.539 109.148 216.77 98.1266 235.888 86.8806C241.286 83.7317 246.459 83.6192 251.745 86.7681C271.313 98.1266 290.881 109.373 310.449 120.731C315.735 123.767 318.096 128.266 318.096 134.226C317.984 145.472 318.096 156.718 318.096 167.964ZM190.567 167.852C190.567 176.174 190.792 184.383 190.454 192.706C190.342 197.429 192.029 200.24 196.077 202.49C210.584 210.699 225.092 219.021 239.487 227.568C242.973 229.592 245.897 229.48 249.271 227.568C264.003 218.909 278.848 210.362 293.805 201.927C296.954 200.128 298.416 197.654 298.416 194.055C298.416 176.736 298.416 159.53 298.416 142.211C298.416 138.837 297.066 136.251 294.142 134.564C278.96 125.792 263.778 117.02 248.596 108.248C245.784 106.674 243.085 106.674 240.274 108.248C225.204 116.907 210.135 125.679 195.065 134.339C191.916 136.138 190.567 138.612 190.567 142.211C190.679 150.645 190.567 159.305 190.567 167.852Z" fill="#FFD987"/>
<path d="M190.567 167.852C190.567 159.305 190.679 150.758 190.567 142.098C190.454 138.5 191.916 136.026 195.065 134.226C210.135 125.567 225.204 116.907 240.274 108.135C243.086 106.449 245.897 106.561 248.596 108.135C263.778 116.907 278.96 125.679 294.142 134.451C297.066 136.138 298.416 138.725 298.416 142.098C298.416 159.417 298.416 176.624 298.416 193.943C298.416 197.541 296.841 200.015 293.805 201.815C278.96 210.362 264.116 218.909 249.271 227.456C245.897 229.48 242.973 229.592 239.487 227.456C225.092 219.021 210.697 210.587 196.077 202.377C192.029 200.128 190.229 197.316 190.454 192.593C190.792 184.383 190.567 176.174 190.567 167.852ZM285.033 168.189C285.033 161.779 284.921 155.256 285.146 148.846C285.258 145.81 284.358 144.01 281.659 142.548C270.188 136.138 258.718 129.503 247.359 122.868C245.222 121.631 243.76 121.743 241.624 122.98C230.04 129.84 218.344 136.475 206.648 143.111C204.624 144.235 204.062 145.585 204.062 147.834C204.174 161.329 204.174 174.824 204.062 188.207C204.062 190.681 204.849 192.031 206.873 193.155C218.569 199.79 230.265 206.538 241.849 213.286C243.873 214.41 245.335 214.298 247.247 213.173C258.942 206.313 270.751 199.566 282.559 192.818C284.358 191.806 285.033 190.569 285.033 188.432C284.921 181.684 285.033 174.937 285.033 168.189Z" fill="black"/>
<path d="M285.033 168.189C285.033 174.937 284.921 181.684 285.033 188.432C285.033 190.569 284.358 191.693 282.559 192.818C270.751 199.565 258.942 206.313 247.246 213.173C245.335 214.298 243.873 214.41 241.848 213.286C230.265 206.425 218.569 199.79 206.873 193.155C204.736 191.918 203.949 190.569 204.062 188.207C204.174 174.712 204.174 161.217 204.062 147.834C204.062 145.585 204.624 144.347 206.648 143.11C218.344 136.475 230.04 129.84 241.623 122.98C243.76 121.743 245.222 121.631 247.359 122.868C258.717 129.615 270.076 136.138 281.659 142.548C284.358 144.123 285.258 145.809 285.145 148.846C284.808 155.256 285.033 161.779 285.033 168.189Z" fill="#CFB06E"/>
</g>
<defs>
<clipPath id="clip0_60_1769">
<rect width="512" height="512" fill="white"/>
</clipPath>
</defs>
</svg>
